<?xml version="1.0" encoding="utf-8"?>
<!-- Generator: Adobe Illustrator 22.0.1, SVG Export Plug-In . SVG Version: 6.00 Build 0)  -->
<svg version="1.1" id="Capa_1" xmlns="http://www.w3.org/2000/svg" xmlns:xlink="http://www.w3.org/1999/xlink" x="0px" y="0px"
	 viewBox="0 0 512 512" style="enable-background:new 0 0 512 512;" xml:space="preserve">
<style type="text/css">
	.st0{fill:#51BCDA;}
</style>
<g>
	<g>
		<path class="st0" d="M501.9,62.5c-2.3-0.8-57.9-20.3-125.5-20.3c-56.7,0-105,13.7-120.4,18.6c-15.4-4.9-63.7-18.6-120.4-18.6
			c-67.5,0-123.1,19.4-125.5,20.3C4.1,64.6,0,70.4,0,76.8V388c0,4.9,2.4,9.6,6.4,12.4c7.4,5.3,13.8,1.8,21-0.4v54.2
			c0,4.5,2,8.8,5.5,11.7c3.5,2.9,8.1,4.1,12.6,3.2L206,438.4c7.1,15.5,23.3,27.9,41.1,30.4c5.6,2.9,42.3,1.8,58.1-31.1
			c178.6,33.3,168.1,31.7,170.7,31.7c8.4,0,15.2-6.8,15.2-15.2v-52.1c11.5,3.9,20.9-4.4,20.9-14.1V76.8
			C512,70.4,507.9,64.6,501.9,62.5z M200.9,408.4l-143,27.4v-43.5c51.1-10.8,95.6-10.9,143-2.4L200.9,408.4L200.9,408.4z
			 M30.4,367.5c0-17.4,0-263.4,0-279.6c69.3-20.1,139.3-20.6,210.4,0c0,17.1,0,270.3,0,279.5C171.8,349.2,102.8,348.2,30.4,367.5z
			 M279.6,418.5c-0.3,2.6-1.6,5.6-2.8,8c-11.8,20.6-41.8,14.2-45.5-8c-0.1-0.7,0-5.6,0-22c20,5.2,22.6,8.3,29.8,5.8
			c0.1,0,6.1-2.2,18.5-5.5V418.5z M460.7,435.9L310,407.7v-17.6c50.1-9.1,97.3-8.5,150.7,3.7L460.7,435.9L460.7,435.9z M481.6,367.5
			c-73.1-19.5-142.5-18.2-210.4,0c0-9.4,0-262.5,0-279.6c72.2-21,142-19.8,210.4,0C481.6,97.9,481.6,356.2,481.6,367.5z"/>
	</g>
</g>
<g>
	<g>
		<path class="st0" d="M431.3,121.3c-58.1-20.9-107-0.8-109.4-0.2c-8,2.6-12.4,11.1-9.8,19.1c2.6,8,11.1,12.4,19.1,9.8
			c56.5-18.1,85.7,0.7,94.9,0.7c6.2,0,12.1-3.9,14.3-10.1C443.3,132.9,439.2,124.2,431.3,121.3z"/>
	</g>
</g>
<g>
	<g>
		<path class="st0" d="M431.3,204.5c-59.1-21.2-106.5-0.6-109.4-0.2c-8,2.6-12.4,11.1-9.8,19.1c2.6,8,11.1,12.4,19.1,9.8
			c2.4-0.4,41.7-17.4,89.8-0.2c7.9,2.8,16.6-1.2,19.5-9.2C443.3,216,439.2,207.3,431.3,204.5z"/>
	</g>
</g>
<g>
	<g>
		<path class="st0" d="M431.3,287.6c-59.1-21.2-106.5-0.6-109.4-0.2c-8,2.6-12.4,11.1-9.8,19.1c2.6,8,11.1,12.4,19.1,9.8
			c2.4-0.4,41.6-17.5,89.8-0.2c7.9,2.8,16.6-1.3,19.5-9.2C443.3,299.1,439.2,290.4,431.3,287.6z"/>
	</g>
</g>
<g>
	<g>
		<path class="st0" d="M190.5,121.3c-32.7-11.7-69.8-12.9-104.4-1.8c-2.1,1.1-11.6,1.7-14.8,11.3c-3.9,11.7,7.2,23.1,19.1,19.3
			c2.4-0.4,41.6-17.5,89.8-0.2c8,2.9,16.6-1.3,19.4-9.2C202.5,132.9,198.4,124.2,190.5,121.3z"/>
	</g>
</g>
<g>
	<g>
		<path class="st0" d="M190.5,204.5c-59.1-21.2-106.5-0.6-109.4-0.2c-8,2.6-12.4,11.1-9.8,19.1c2.6,8,11.1,12.4,19.1,9.8
			c2.4-0.4,41.7-17.4,89.8-0.2c7.9,2.8,16.6-1.2,19.5-9.2C202.5,216,198.4,207.3,190.5,204.5z"/>
	</g>
</g>
<g>
	<g>
		<path class="st0" d="M190.5,287.6C131.5,266.4,84,287,81.2,287.4c-8,2.6-12.4,11.1-9.8,19.1c2.6,8,11.1,12.4,19.1,9.8
			c2.5-0.4,41.6-17.5,89.8-0.2c7.9,2.8,16.6-1.3,19.5-9.2C202.5,299.1,198.4,290.4,190.5,287.6z"/>
	</g>
</g>
</svg>
