<?xml version="1.0" encoding="utf-8"?>
<!-- Generator: Adobe Illustrator 22.0.1, SVG Export Plug-In . SVG Version: 6.00 Build 0)  -->
<svg version="1.1" id="Layer_1" xmlns="http://www.w3.org/2000/svg" xmlns:xlink="http://www.w3.org/1999/xlink" x="0px" y="0px"
	 viewBox="0 0 512 512" style="enable-background:new 0 0 512 512;" xml:space="preserve">
<style type="text/css">
	.st0{fill:#51BCDA;}
</style>
<g>
	<g>
		<path class="st0" d="M512,256C512,114.8,397.2,0,256,0C184.9,0,125.8,24.6,75.3,75.3c-3.3,3.3-3.3,8.7,0,12l48,48c0,0,0,0,0,0h0
			L250,262c3.3,3.3,8.7,3.3,12.1,0s3.3-8.7,0-12.1l-23.6-23.6c5-2.9,10.8-4.5,17.6-4.5c18.8,0,34.1,15.3,34.1,34.1
			c0,18.8-15.3,34.1-34.1,34.1c-18.8,0-34.1-15.3-34.1-34.1c0-4.7-3.8-8.5-8.5-8.5s-8.5,3.8-8.5,8.5c0,28.2,23,51.2,51.2,51.2
			s51.2-23,51.2-51.2s-23-51.2-51.2-51.2c-11.5,0-21.7,3.2-30,9.2l-36.1-36.1c18.5-15.7,41.6-24.3,66.1-24.3
			c56.5,0,102.4,45.9,102.4,102.4c0,45-28.9,84-71.1,97.5c-5.2-12.1-17.3-20.7-31.3-20.7c-14,0-26.1,8.5-31.3,20.7
			C182.5,340,153.6,301,153.6,256c0-15.5,3.5-30.6,10.4-44.7c2.1-4.2,0.3-9.3-3.9-11.4c-4.3-2.1-9.4-0.3-11.4,3.9
			c-8,16.5-12.1,34.1-12.1,52.2c0,53.4,35,99.6,85.7,114.5c1.8,17.1,16.2,30.5,33.8,30.5s31.9-13.4,33.8-30.5
			c50.7-14.9,85.7-61.1,85.7-114.5c0-65.9-53.6-119.5-119.5-119.5c-29,0-56.4,10.4-78.1,29.3l-36.2-36.2
			c31.4-28.5,71.6-44.3,114.3-44.3c34.8,0,67.9,10.4,96.4,30c-1.6,3.9-2.5,8.2-2.5,12.7c0,18.8,15.3,34.1,34.1,34.1
			c4.5,0,8.8-0.9,12.7-2.5c19.5,28.4,30,61.6,30,96.4c0,94.1-76.6,170.7-170.7,170.7S85.3,350.1,85.3,256c0-33.4,9.7-65.8,28.1-93.8
			c2.6-3.9,1.5-9.2-2.4-11.8c-3.9-2.6-9.2-1.5-11.8,2.4c-20.3,30.7-31,66.4-31,103.2c0,103.5,84.2,187.7,187.7,187.7
			S443.7,359.5,443.7,256c0-38.5-11.6-75.2-33.4-106.6c4.8-5.9,7.8-13.3,7.8-21.4c0-18.8-15.3-34.1-34.1-34.1
			c-8.1,0-15.5,3-21.4,7.8C331.2,79.9,294.5,68.3,256,68.3c-47.3,0-91.7,17.6-126.4,49.3L93.5,81.4c45.7-43.3,99-64.3,162.5-64.3
			c131.8,0,238.9,107.2,238.9,238.9c0,51.7-17.1,102.2-48,143.3c-5.7-4.2-12.6-6.8-20.2-6.8c-18.8,0-34.1,15.3-34.1,34.1
			c0,7.6,2.6,14.6,6.8,20.2c-41.2,30.9-91.6,48-143.3,48C124.2,494.9,17.1,387.7,17.1,256c0-45.2,12.7-89.2,36.7-127.2
			c2.5-4,1.3-9.3-2.7-11.8c-4-2.5-9.3-1.3-11.8,2.7C13.6,160.5,0,207.6,0,256c0,141.2,114.8,256,256,256c56.9,0,112.3-19.3,157-54.1
			c4.2,1.8,8.8,2.9,13.6,2.9c18.8,0,34.1-15.3,34.1-34.1c0-4.8-1-9.4-2.9-13.6C492.7,368.3,512,312.8,512,256z M256,384
			c-9.4,0-17.1-7.7-17.1-17.1s7.7-17.1,17.1-17.1c9.4,0,17.1,7.7,17.1,17.1S265.4,384,256,384z M384,110.9c9.4,0,17.1,7.7,17.1,17.1
			c0,4.7-1.9,8.9-4.9,12c-0.8,0.3-1.6,0.6-2.3,1.1c-0.6,0.5-1,1.1-1.5,1.7c-2.5,1.4-5.3,2.3-8.3,2.3c-9.4,0-17.1-7.7-17.1-17.1
			C366.9,118.6,374.6,110.9,384,110.9z M426.7,443.7c-2.5,0-4.9-0.6-7-1.5c-0.1-0.1-0.1-0.2-0.1-0.2c-1.1-1.4-2.6-2.1-4.2-2.6
			c-3.5-3.1-5.7-7.6-5.7-12.7c0-9.4,7.7-17.1,17.1-17.1s17.1,7.7,17.1,17.1S436.1,443.7,426.7,443.7z"/>
	</g>
</g>
</svg>
